inDegrees=no
num_controls=7
num_derivatives=13
num_iterations=228
num_multipliers=7
num_parameters=0
num_slacks=7
num_states=26
objective=0.509689
objective_accelerations=0.041351
objective_balance=0.003552
objective_effort=0.029505
objective_height=0.322676
objective_ligament=0.112605
solver_duration=2865.289529
status=Solve_Succeeded
success=true
DataType=double
version=3
OpenSimVersion=4.5
endheader
time	/jointset/ground_pelvis/pelvis_tilt/value	/jointset/ground_pelvis/pelvis_tx/value	/jointset/ground_pelvis/pelvis_ty/value	/jointset/hip_l/hip_flexion_l/value	/jointset/hip_l/hip_adduction_l/value	/jointset/hip_l/hip_rotation_l/value	/jointset/back/lumbar_extension/value	/jointset/patellofemoral_l/patellar_flexion_l/value	/jointset/knee_l/knee_flexion_l/value	/jointset/knee_l/knee_adduction_l/value	/jointset/knee_l/knee_rotation_l/value	/jointset/ankle_l/ankle_angle_l/value	/jointset/subtalar_l/subtalar_angle_l/value	/jointset/ground_pelvis/pelvis_tilt/speed	/jointset/ground_pelvis/pelvis_tx/speed	/jointset/ground_pelvis/pelvis_ty/speed	/jointset/hip_l/hip_flexion_l/speed	/jointset/hip_l/hip_adduction_l/speed	/jointset/hip_l/hip_rotation_l/speed	/jointset/back/lumbar_extension/speed	/jointset/patellofemoral_l/patellar_flexion_l/speed	/jointset/knee_l/knee_flexion_l/speed	/jointset/knee_l/knee_adduction_l/speed	/jointset/knee_l/knee_rotation_l/speed	/jointset/ankle_l/ankle_angle_l/speed	/jointset/subtalar_l/subtalar_angle_l/speed	/forceset/tau_hip_flexion_l	/forceset/tau_hip_adduction_l	/forceset/tau_hip_rotation_l	/forceset/tau_knee_flexion_l	/forceset/tau_ankle_angle_l	/forceset/tau_subtalar_angle_l	/forceset/tau_lumbar_extension	lambda_cid13_p0	lambda_cid13_p1	lambda_cid13_p2	lambda_cid13_p3	lambda_cid13_p4	lambda_cid13_p5	lambda_cid14_p0	/jointset/ground_pelvis/pelvis_tilt/accel	/jointset/ground_pelvis/pelvis_tx/accel	/jointset/ground_pelvis/pelvis_ty/accel	/jointset/hip_l/hip_flexion_l/accel	/jointset/hip_l/hip_adduction_l/accel	/jointset/hip_l/hip_rotation_l/accel	/jointset/back/lumbar_extension/accel	/jointset/patellofemoral_l/patellar_flexion_l/accel	/jointset/knee_l/knee_flexion_l/accel	/jointset/knee_l/knee_adduction_l/accel	/jointset/knee_l/knee_rotation_l/accel	/jointset/ankle_l/ankle_angle_l/accel	/jointset/subtalar_l/subtalar_angle_l/accel	gamma_cid13_p0	gamma_cid13_p1	gamma_cid13_p2	gamma_cid13_p3	gamma_cid13_p4	gamma_cid13_p5	gamma_cid14_p0
0	-0.01703289630003256	0.04725941100091547	0.9233314221817761	0.3085816938045678	-0.2606078462716857	-0.3178599256552221	-0.3879492264334186	0.2499269421184925	0.2499269421184919	-0.1009298630665989	-0.1745308331042204	-0.0008036623358878681	0.03708557054753512	0	0	0	0	0	0	0	0	0	0	0	0	0	0.1032636733050811	-0.04142633608289182	-0.01654774850849092	-0.2976574562852541	0.2679372271048773	-0.04264737114756718	-0.01450222256097379	40.27625314013043	10.88150398937524	-1.517286084883781	2.263671344773905	-632.5950765418489	-58.10657779661484	-22.93275166394228	-1.590179499118008	-1.939941544123978	-0.8375419323474833	8.429547203745289	-0.4146371645347593	2.105073264934902	-6.94142072422387	6.990304407981726	6.990304407981697	1.506739977385952	-0.04231264658352575	0.5740818669436963	-0.2466788827035042	1.832479316674377e-08	1.015354663293371e-07	-4.162679404572034e-08	-7.596372591014519e-09	9.182508284640217e-08	4.908232226283936e-08	1.516964661379651e-08
0.01	-0.01710830525887042	0.04716377208940896	0.9232904387391752	0.3089927472395343	-0.2606293731913668	-0.3177539404276229	-0.3882940166518539	0.250270132069691	0.2502701320696895	-0.1008586201235157	-0.1745309000163415	-0.0007759392087408523	0.03707203026193572	-0.01496140762400087	-0.01900768739379152	-0.008162826350791885	0.08173089486519985	-0.004352363966572868	0.02113431251796613	-0.0684248322612703	0.06834914773810077	0.06834914773809903	0.01404386254923707	-1.016990042219515e-05	0.005559792896379616	-0.002750856202397585	0.09474391656712643	-0.04718209754075545	-0.01589054484760708	-0.2882965011648893	0.254170740874566	-0.03135524383546875	-0.007183849355701694	36.28341424828873	6.601095594407952	-0.7487991936755387	3.15833260342598	-635.010769192098	-66.19518329505856	-22.93722708929279	-1.431065958314243	-1.863169620244941	-0.8005552960250779	7.972891287452773	-0.4525944264322346	2.108212329675205	-6.71303276316747	6.71389054755933	6.713890547559051	1.322513970597842	0.02010196768731091	0.5492068608426569	-0.295720245301591	7.956849979943772e-09	9.697740570542477e-08	-1.291115975101114e-09	1.535397728123467e-09	4.26552850179296e-08	2.950980582219586e-08	1.121386679551886e-08
0.02	-0.0173297172068038	0.04688165884731672	0.9231688465711504	0.3102067157550617	-0.260695835433457	-0.3174384916579552	-0.38930705885012	0.2512881476164376	0.2512881476164371	-0.1006530776395572	-0.1745309744015767	-0.0006921623806587854	0.0370296951630536	-0.02920059781892498	-0.03729486611714652	-0.01612174508479912	0.1605830161122128	-0.008987064481695905	0.04189270841384236	-0.1336503959660905	0.1349651191096043	0.1349651191096005	0.02685990817468398	-1.494622489580193e-06	0.01121074018706107	-0.005758962656544103	0.08622415982918173	-0.05293785899861211	-0.01523334118672708	-0.2789355460445173	0.2404042546442602	-0.02006311652336097	0.000134523849574317	32.34885374340588	2.312780702577472	0.01832464177723844	4.007560529851324	-636.5313940278038	-74.19939252417612	-22.95045923628488	-1.445736013302626	-1.795839810036705	-0.7967604089905539	7.853792480107924	-0.4711044742447943	2.029889940516924	-6.301567012933846	6.643669134662278	6.643669134662193	1.261176592627915	-0.03854361091256624	0.5923127458040256	-0.298128933053307	-2.41109320685623e-09	9.241934508151248e-08	3.904456209551811e-08	1.066716804726145e-08	-6.514512810542959e-09	9.937289381552365e-09	7.258086977241216e-09
0.03	-0.01769051412221181	0.04642115772754726	0.9229686242955454	0.3121942506416284	-0.260809837589734	-0.3169179854954335	-0.3909547403714257	0.2529633212130379	0.2529633212130377	-0.1003252495657599	-0.1745311714085552	-0.0005505017116667167	0.03695656956642372	-0.04287444289110042	-0.05459724933977339	-0.02389151453139659	0.2363633298045967	-0.01384556166113737	0.06213103613876848	-0.1952181501445978	0.1997534179171316	0.1997534179171437	0.03851066718829069	-2.254984080322746e-05	0.01723454556497713	-0.008857092673852034	0.07899655523541289	-0.04718278067344279	-0.01493188773966238	-0.2745719133409047	0.2395164867248543	-0.02227696957134049	0.007184541515449433	31.91072181051916	3.287319716064238	-0.06433910498783238	2.352934640906748	-638.8093274991329	-71.19603868711296	-22.9720326613933	-1.315559048137092	-1.666219133592899	-0.7624073883471418	7.356054108294546	-0.4980694711008831	2.009179001524302	-5.984215897702206	6.348981474176846	6.348981474179229	1.087788034277616	0.01842125526062832	0.6243903821091836	-0.3143147299997059	-1.996335611422191e-08	6.120182583237091e-08	6.508050213731904e-08	3.014081842384618e-08	-9.809397768079784e-08	-1.656185297206346e-08	2.248847608031835e-09
0.04	-0.01818551954713439	0.04579387646450793	0.9226916398903038	0.3149227693240174	-0.2609733941440671	-0.3161974210930541	-0.3931980666899953	0.2552768920417891	0.2552768920417907	-0.09988676140611583	-0.1745311174212103	-0.0003452077992308136	0.03685273073083471	-0.05604229972175721	-0.07065089477112202	-0.03147417101211653	0.308779775276614	-0.01889794409286303	0.08190435638544891	-0.2527793554188225	0.2626445655398141	0.2626445655398416	0.04899192534391925	4.870424293853896e-05	0.02393738887584375	-0.0119016104483677	0.07176895064165031	-0.04142770234827001	-0.01463043429259886	-0.2702082806372878	0.2386287188054514	-0.02449082261931526	0.01423455918132719	31.52606823481841	4.255035134462719	-0.1488155081449244	0.6451626343563542	-640.277729882066	-68.11128895734819	-23.00137777252912	-1.344538364998861	-1.546092251781092	-0.7593378158150478	7.181018836034609	-0.5098815247016348	1.936888444867783	-5.500257232077336	6.264238897693312	6.264238897693156	1.027276421032285	-0.02008175050148976	0.7281203323940947	-0.2874064844948723	-3.766374932510441e-08	2.943462702394623e-08	9.082160221976289e-08	4.982770344079065e-08	-1.905478686756256e-07	-4.320381235481275e-08	-2.782112576660676e-09
0.05	-0.01881003405081676	0.04501084574606842	0.9223393574543516	0.3183616708138941	-0.2611885803711347	-0.315281630463535	-0.3960011302443184	0.2582111553931165	0.2582111553931188	-0.09934925322821664	-0.1745305712282646	-7.097615992767102e-05	0.03671801742312027	-0.06878847927163277	-0.08589078941109095	-0.03898701614263077	0.3786941880488442	-0.02418842620807207	0.1012051322994452	-0.3076043682657654	0.3239842382732729	0.3239842382733134	0.0582958848819643	5.956518564621464e-05	0.03086260121324013	-0.01510984182679192	0.06651969244994729	-0.04072632047192527	-0.01423666513976684	-0.2656354892732757	0.2328458099551063	-0.02208154260798387	0.01845348325242713	29.82831216734142	3.443985396781238	0.05126558811119923	1.137044989218542	-639.9461387843525	-69.023655814471	-23.03782672667061	-1.228836937961464	-1.503259019718824	-0.7480017129920975	6.850700613629619	-0.5460126377801821	1.919362845656843	-5.439275233962593	6.035252090399061	6.035252090401049	0.8498938048628408	0.01154009583460719	0.6677696804292115	-0.3478646886455	-4.391408364707832e-08	-1.914651319330898e-08	1.15580581238087e-07	4.980431363136201e-08	-2.208763620305759e-07	-6.158948718012215e-08	-1.082526767565444e-08
